<svg width="56" height="56" viewBox="0 0 56 56" fill="none" xmlns="http://www.w3.org/2000/svg">
<rect width="56" height="56" rx="28" fill="white"/>
<path d="M25.6669 29.1665C26.1679 29.8363 26.8071 30.3905 27.5412 30.7916C28.2753 31.1926 29.087 31.4311 29.9213 31.4909C30.7557 31.5506 31.5931 31.4302 32.3768 31.1379C33.1605 30.8455 33.8722 30.388 34.4636 29.7965L37.9636 26.2965C39.0262 25.1963 39.6141 23.7228 39.6008 22.1933C39.5875 20.6638 38.9741 19.2007 37.8925 18.1192C36.811 17.0376 35.3479 16.4242 33.8184 16.4109C32.2889 16.3976 30.8154 16.9855 29.7152 18.0481L27.7086 20.0431M30.3336 26.8331C29.8325 26.1633 29.1933 25.6091 28.4593 25.208C27.7252 24.807 26.9135 24.5685 26.0791 24.5087C25.2448 24.449 24.4074 24.5694 23.6237 24.8617C22.8399 25.1541 22.1283 25.6115 21.5369 26.2031L18.0369 29.7031C16.9743 30.8033 16.3863 32.2768 16.3996 33.8063C16.4129 35.3358 17.0264 36.7989 18.108 37.8804C19.1895 38.962 20.6526 39.5754 22.1821 39.5887C23.7115 39.602 25.1851 39.0141 26.2852 37.9515L28.2802 35.9565" stroke="#15502A" stroke-width="2" stroke-linecap="round" stroke-linejoin="round"/>
</svg>
