<svg width="56" height="56" viewBox="0 0 56 56" fill="none" xmlns="http://www.w3.org/2000/svg">
<rect width="56" height="56" rx="28" fill="white"/>
<g clip-path="url(#clip0_1_2071)">
<path d="M28 32.2188C30.33 32.2188 32.2188 30.33 32.2188 28C32.2188 25.67 30.33 23.7812 28 23.7812C25.67 23.7812 23.7812 25.67 23.7812 28C23.7812 30.33 25.67 32.2188 28 32.2188Z" stroke="#15502A" stroke-width="2" stroke-miterlimit="10" stroke-linecap="round" stroke-linejoin="round"/>
<path d="M28 35.7344C32.2716 35.7344 35.7344 32.2716 35.7344 28C35.7344 23.7284 32.2716 20.2656 28 20.2656C23.7284 20.2656 20.2656 23.7284 20.2656 28C20.2656 32.2716 23.7284 35.7344 28 35.7344Z" stroke="#15502A" stroke-width="2" stroke-miterlimit="10" stroke-linecap="round" stroke-linejoin="round"/>
<path d="M16.7031 23.7812V17.4062C16.7031 17.0179 17.0179 16.7031 17.4062 16.7031H23.7812" stroke="#15502A" stroke-width="2" stroke-miterlimit="10" stroke-linecap="round" stroke-linejoin="round"/>
<path d="M23.7812 39.2969H17.4062C17.0179 39.2969 16.7031 38.9821 16.7031 38.5938V32.2188" stroke="#15502A" stroke-width="2" stroke-miterlimit="10" stroke-linecap="round" stroke-linejoin="round"/>
<path d="M39.2969 32.2188V38.5938C39.2969 38.9821 38.9821 39.2969 38.5938 39.2969H32.2188" stroke="#15502A" stroke-width="2" stroke-miterlimit="10" stroke-linecap="round" stroke-linejoin="round"/>
<path d="M32.2188 16.7031H38.5938C38.9821 16.7031 39.2969 17.0179 39.2969 17.4062V23.7812" stroke="#15502A" stroke-width="2" stroke-miterlimit="10" stroke-linecap="round" stroke-linejoin="round"/>
</g>
<defs>
<clipPath id="clip0_1_2071">
<rect width="24" height="24" fill="white" transform="translate(16 16)"/>
</clipPath>
</defs>
</svg>
