<svg width="56" height="56" viewBox="0 0 56 56" fill="none" xmlns="http://www.w3.org/2000/svg">
<rect width="56" height="56" rx="28" fill="white"/>
<path d="M19.6665 28C19.6665 23.3975 23.3975 19.6665 28 19.6665C32.6025 19.6665 36.3335 23.3975 36.3335 28" stroke="#15502A" stroke-width="2" stroke-miterlimit="10" stroke-linecap="round" stroke-linejoin="round"/>
<path d="M30.5001 33.8334C30.5001 35.2141 29.3807 36.3335 28 36.3335C26.6194 36.3335 25.5 35.2141 25.5 33.8334C25.5 32.4528 26.6194 31.3334 28 31.3334C29.3807 31.3334 30.5001 32.4528 30.5001 33.8334Z" stroke="#15502A" stroke-width="2" stroke-miterlimit="10" stroke-linecap="round" stroke-linejoin="round"/>
<path d="M28 31.334V24.6672" stroke="#15502A" stroke-width="2" stroke-miterlimit="10" stroke-linecap="round" stroke-linejoin="round"/>
<path d="M41.3337 27.9999C41.3337 35.3639 35.364 41.3335 28.0001 41.3335C20.6362 41.3335 14.6665 35.3639 14.6665 27.9999C14.6665 20.6359 20.6362 14.6663 28.0001 14.6663C35.364 14.6663 41.3337 20.6359 41.3337 27.9999Z" stroke="#15502A" stroke-width="2" stroke-miterlimit="10" stroke-linecap="round" stroke-linejoin="round"/>
</svg>
