<svg width="56" height="56" viewBox="0 0 56 56" fill="none" xmlns="http://www.w3.org/2000/svg">
<rect width="56" height="56" rx="28" fill="white"/>
<path d="M39.6668 26.9335V28.0068C39.6654 30.5227 38.8507 32.9706 37.3444 34.9856C35.838 37.0006 33.7207 38.4747 31.3081 39.1881C28.8955 39.9014 26.317 39.8157 23.957 38.9439C21.5971 38.072 19.5823 36.4606 18.2129 34.3501C16.8436 32.2395 16.1933 29.7429 16.3588 27.2325C16.5243 24.7222 17.4969 22.3326 19.1315 20.4201C20.7661 18.5076 22.9751 17.1748 25.429 16.6203C27.883 16.0659 30.4505 16.3196 32.7485 17.3435M39.6668 18.6668L28.0002 30.3452L24.5002 26.8452" stroke="#15502A" stroke-width="2" stroke-linecap="round" stroke-linejoin="round"/>
</svg>
