<svg width="23" height="26" viewBox="0 0 23 26" fill="none" xmlns="http://www.w3.org/2000/svg">
<path d="M8.10874 23.1667C8.9314 23.8928 10.012 24.3333 11.1955 24.3333C12.3791 24.3333 13.4597 23.8928 14.2823 23.1667M18.1955 8C18.1955 6.14348 17.458 4.36301 16.1453 3.05025C14.8325 1.7375 13.0521 1 11.1955 1C9.33902 1 7.55854 1.7375 6.24579 3.05025C4.93304 4.36301 4.19554 6.14348 4.19554 8C4.19554 11.6052 3.28609 14.0736 2.27015 15.7063C1.41319 17.0835 0.984706 17.7721 1.00042 17.9642C1.01781 18.1769 1.06287 18.258 1.23428 18.3852C1.38907 18.5 2.08689 18.5 3.48253 18.5H18.9085C20.3042 18.5 21.002 18.5 21.1568 18.3852C21.3282 18.258 21.3733 18.1769 21.3907 17.9642C21.4064 17.7721 20.9779 17.0835 20.1209 15.7063C19.105 14.0736 18.1955 11.6052 18.1955 8Z" stroke="white" stroke-width="2" stroke-linecap="round" stroke-linejoin="round"/>
</svg>
