<svg width="24" height="24" viewBox="0 0 24 24" fill="none" xmlns="http://www.w3.org/2000/svg">
<path d="M5.75 12C5.75 8.54812 8.54824 5.74988 12.0001 5.74988C15.452 5.74988 18.2502 8.54812 18.2502 12" stroke="#20C85E" stroke-width="1.5" stroke-miterlimit="10" stroke-linecap="round" stroke-linejoin="round"/>
<path d="M13.8751 16.375C13.8751 17.4105 13.0356 18.25 12 18.25C10.9645 18.25 10.125 17.4105 10.125 16.375C10.125 15.3394 10.9645 14.4999 12 14.4999C13.0356 14.4999 13.8751 15.3394 13.8751 16.375Z" stroke="#20C85E" stroke-width="1.5" stroke-miterlimit="10" stroke-linecap="round" stroke-linejoin="round"/>
<path d="M12 14.5005V9.50039" stroke="#20C85E" stroke-width="1.5" stroke-miterlimit="10" stroke-linecap="round" stroke-linejoin="round"/>
<path d="M22.0004 11.9998C22.0004 17.5228 17.5231 22 12.0002 22C6.47727 22 2 17.5228 2 11.9998C2 6.47682 6.47727 1.99961 12.0002 1.99961C17.5231 1.99961 22.0004 6.47682 22.0004 11.9998Z" stroke="#20C85E" stroke-width="1.5" stroke-miterlimit="10" stroke-linecap="round" stroke-linejoin="round"/>
</svg>
