<svg width="28" height="28" viewBox="0 0 28 28" fill="none" xmlns="http://www.w3.org/2000/svg">
<path d="M15.647 5.61316V22.0294C15.6476 22.1379 15.6267 22.2455 15.5856 22.346C15.5445 22.4465 15.484 22.5378 15.4074 22.6148C15.3309 22.6918 15.2399 22.7528 15.1397 22.7945C15.0395 22.8362 14.932 22.8577 14.8234 22.8577C14.7149 22.8577 14.6074 22.8362 14.5072 22.7945C14.407 22.7528 14.316 22.6918 14.2394 22.6148C14.1629 22.5378 14.1023 22.4465 14.0612 22.346C14.0201 22.2455 13.9993 22.1379 13.9999 22.0294V5.61316L7.99473 11.9938C7.92066 12.0747 7.83058 12.1393 7.7302 12.1835C7.62982 12.2277 7.52135 12.2505 7.41168 12.2505C7.30201 12.2505 7.19354 12.2277 7.09316 12.1835C6.99278 12.1393 6.9027 12.0747 6.82863 11.9938C6.67365 11.8252 6.58765 11.6045 6.58765 11.3754C6.58765 11.1463 6.67365 10.9256 6.82863 10.7569L14.2404 2.8807C14.3144 2.79981 14.4045 2.73522 14.5049 2.69103C14.6053 2.64684 14.7138 2.62402 14.8234 2.62402C14.9331 2.62402 15.0416 2.64684 15.142 2.69103C15.2423 2.73522 15.3324 2.79981 15.4065 2.8807L22.8183 10.7569C22.9728 10.9255 23.0585 11.1459 23.0585 11.3746C23.0585 11.6032 22.9728 11.8236 22.8183 11.9922C22.7442 12.0731 22.6541 12.1377 22.5537 12.1819C22.4534 12.2261 22.3449 12.2489 22.2352 12.2489C22.1255 12.2489 22.0171 12.2261 21.9167 12.1819C21.8163 12.1377 21.7262 12.0731 21.6521 11.9922L15.647 5.61482V5.61316Z" fill="white"/>
</svg>
