<svg width="32" height="32" viewBox="0 0 32 32" fill="none" xmlns="http://www.w3.org/2000/svg">
<path d="M20.0001 4.66699H12.0001C7.94999 4.66699 4.66675 7.95024 4.66675 12.0003V20.0003C4.66675 24.0504 7.94999 27.3337 12.0001 27.3337H20.0001C24.0502 27.3337 27.3334 24.0504 27.3334 20.0003V12.0003C27.3334 7.95024 24.0502 4.66699 20.0001 4.66699Z" stroke="#999999" stroke-width="1.5" stroke-linecap="round" stroke-linejoin="round"/>
<path d="M16.0001 20.8084C18.6555 20.8084 20.8081 18.6558 20.8081 16.0004C20.8081 13.345 18.6555 11.1924 16.0001 11.1924C13.3448 11.1924 11.1921 13.345 11.1921 16.0004C11.1921 18.6558 13.3448 20.8084 16.0001 20.8084Z" stroke="#999999" stroke-width="1.5" stroke-linecap="round" stroke-linejoin="round"/>
<path d="M22.5254 10.8482C23.2839 10.8482 23.8988 10.2334 23.8988 9.4749C23.8988 8.71642 23.2839 8.10156 22.5254 8.10156C21.767 8.10156 21.1521 8.71642 21.1521 9.4749C21.1521 10.2334 21.767 10.8482 22.5254 10.8482Z" fill="#999999"/>
</svg>
