<svg width="100" height="52" viewBox="0 0 100 52" fill="none" xmlns="http://www.w3.org/2000/svg">
<g clip-path="url(#clip0_2_326)">
<path d="M37.0422 21.8211C35.0593 20.3935 32.6415 19.5466 30.0247 19.5466C27.1036 19.5466 24.4006 20.5952 22.2973 22.3711C22.0805 22.5407 21.8802 22.7258 21.6799 22.9301C21.4631 23.1331 21.2628 23.3362 21.0954 23.5559C19.0922 25.7546 17.8738 28.6652 17.8738 31.8611C17.8738 32.7914 17.6571 33.6537 17.2894 34.4157C17.1055 34.7704 16.9052 35.1083 16.6555 35.4129C15.6209 36.7827 13.9854 37.663 12.1496 37.663C8.99525 37.663 6.42536 35.0582 6.42536 31.8611C6.42536 28.6639 8.99525 26.0592 12.1496 26.0592C13.9854 26.0592 15.6209 26.9394 16.6555 28.3092C17.2399 26.0592 18.3582 24.0288 19.8935 22.3711V8.22937H13.4681V19.625C13.0345 19.5775 12.5959 19.5453 12.1496 19.5453C5.458 19.5466 0 25.062 0 31.8611C0 38.6602 5.458 44.1768 12.1496 44.1768C14.7702 44.1768 17.1727 43.3312 19.1594 41.8933C19.4092 41.7237 19.6437 41.5386 19.877 41.3523C20.0773 41.1827 20.2777 40.9976 20.478 40.7933C20.6948 40.607 20.8951 40.3872 21.0954 40.1675C21.5962 39.6265 22.0463 39.0341 22.4304 38.4083C23.6158 36.5129 24.2992 34.2808 24.2992 31.8611C24.2992 30.9474 24.516 30.0852 24.8837 29.3231C25.0675 28.9518 25.2678 28.6125 25.5176 28.3092C26.5521 26.9394 28.1876 26.0592 30.0235 26.0592C33.1778 26.0592 35.7477 28.6639 35.7477 31.8611C35.7477 35.0582 33.1778 37.663 30.0235 37.663C28.1876 37.663 26.5521 36.7827 25.5176 35.4129C25.2501 36.4615 24.8494 37.4766 24.3499 38.407C23.7997 39.4723 23.0986 40.4541 22.2973 41.333C23.2824 42.1619 24.3829 42.8391 25.5848 43.2953C26.9528 43.8697 28.4552 44.1755 30.0247 44.1755C32.6415 44.1755 35.0593 43.3261 37.0422 41.8971V43.4379H43.4675V20.2919H37.0422V21.8198V21.8211Z" fill="white"/>
<path d="M20.9788 41.2842L21.1119 41.4191L21.0954 41.3857C21.046 41.3523 21.0117 41.3176 20.9788 41.2842Z" fill="white"/>
<path d="M93.5758 20.2932V21.8211C91.593 20.3935 89.1752 19.5466 86.5584 19.5466C83.6373 19.5466 80.9343 20.5952 78.831 22.3711C78.6142 22.5407 78.4139 22.7258 78.2136 22.9301C77.9968 23.1331 77.7964 23.3362 77.6291 23.5559C75.6259 25.7546 74.4075 28.6652 74.4075 31.8611C74.4075 32.7914 74.1907 33.6537 73.8231 34.4157C73.6392 34.7704 73.4389 35.1083 73.1892 35.4129C72.1546 36.7827 70.5191 37.663 68.6833 37.663C65.5289 37.663 62.959 35.0582 62.959 31.8611C62.959 28.6639 65.5289 26.0592 68.6833 26.0592C70.5191 26.0592 72.1546 26.9394 73.1892 28.3092C73.7736 26.0592 74.8919 24.0288 76.4272 22.3711V8.22937H70.0018V19.625C69.5682 19.5775 69.1296 19.5453 68.6833 19.5453C61.9904 19.5453 56.5337 25.0594 56.5337 31.8598C56.5337 38.6601 61.9917 44.1755 68.6833 44.1755C71.3039 44.1755 73.7064 43.3299 75.6931 41.892C75.9429 41.7224 76.1774 41.5373 76.4107 41.351C76.611 41.1814 76.8113 40.9963 77.0117 40.792C77.2285 40.6057 77.4288 40.3859 77.6291 40.1662C78.1299 39.6252 78.58 39.0328 78.9641 38.407C80.1495 36.5116 80.8329 34.2795 80.8329 31.8598C80.8329 30.9461 81.0497 30.0839 81.4174 29.3218C81.6012 28.9505 81.8015 28.6112 82.0513 28.308C83.0858 26.9381 84.7213 26.0579 86.5571 26.0579C89.7115 26.0579 92.2814 28.6626 92.2814 31.8598C92.2814 35.0569 89.7115 37.6617 86.5571 37.6617C84.7213 37.6617 83.0858 36.7814 82.0513 35.4116C81.7838 36.4602 81.3831 37.4754 80.8836 38.4057C80.3334 39.471 79.6323 40.4528 78.831 41.3317C79.8161 42.1606 80.9166 42.8378 82.1185 43.294C83.4865 43.8684 84.9888 44.1742 86.5584 44.1742C89.1752 44.1742 91.593 43.3248 93.5758 41.8959V43.4366H100.001V20.2907H93.5758V20.2932Z" fill="white"/>
<path d="M77.5125 41.2842L77.6456 41.4191L77.6291 41.3857C77.5796 41.3523 77.5454 41.3176 77.5125 41.2842Z" fill="white"/>
<path d="M46.7878 46.7545H49.1181V47.1118H47.1783V48.5972H48.9368V48.9493H47.1783V50.7985H46.7878V46.7545Z" fill="white"/>
<path d="M49.8104 47.7659H50.1742V48.235H50.2008C50.3226 47.9278 50.642 47.7209 51.011 47.7209C51.0718 47.7209 51.1593 47.7209 51.2037 47.7261V48.1116C51.1707 48.1065 51.082 48.0898 50.9831 48.0898C50.5254 48.0898 50.1894 48.4084 50.1894 48.8492V50.7986H49.8091V47.7659H49.8104Z" fill="white"/>
<path d="M51.4485 49.2964C51.4485 48.3635 51.9949 47.7209 52.7759 47.7209C53.5569 47.7209 54.0983 48.3635 54.0983 49.2964C54.0983 50.2293 53.5594 50.8603 52.7759 50.8603C51.9924 50.8603 51.4485 50.2229 51.4485 49.2964ZM53.7242 49.2964C53.7242 48.632 53.3883 48.0679 52.7759 48.0679C52.1635 48.0679 51.8225 48.632 51.8225 49.2964C51.8225 49.9608 52.1585 50.5197 52.7759 50.5197C53.3933 50.5197 53.7242 49.9608 53.7242 49.2964Z" fill="white"/>
<path d="M54.7561 47.7659H55.1187V48.2349H55.1529C55.2734 47.9163 55.5662 47.7261 55.9567 47.7261C56.3472 47.7261 56.635 47.933 56.7669 48.2735H56.7884C56.9254 47.9381 57.2398 47.7261 57.6759 47.7261C58.2325 47.7261 58.5862 48.0833 58.5862 48.7657V50.7986H58.2059V48.7708C58.2059 48.3018 57.9472 48.073 57.5618 48.073C57.1155 48.073 56.862 48.3802 56.862 48.8106V50.7999H56.4816V48.7387C56.4816 48.3416 56.2445 48.0743 55.8477 48.0743C55.4509 48.0743 55.1377 48.3981 55.1377 48.8672V50.7999H54.7574V47.7672L54.7561 47.7659Z" fill="white"/>
<path d="M60.436 46.7545H60.8392L61.7267 50.1894H61.7596L62.6522 46.7545H63.0985L63.9923 50.1894H64.0253L64.9127 46.7545H65.3159L64.2243 50.7985H63.8059L62.8918 47.4189H62.8639L61.9486 50.7985H61.5302L60.4386 46.7545H60.436Z" fill="white"/>
<path d="M65.3704 49.3015C65.3704 48.3802 65.9105 47.7209 66.6877 47.7209C67.3381 47.7209 67.9657 48.19 67.9657 49.218V49.3966H65.7444C65.7609 50.0815 66.1438 50.5197 66.7422 50.5197C67.1555 50.5197 67.3977 50.3013 67.5016 50.1124H67.9048C67.7729 50.5313 67.3482 50.8603 66.7422 50.8603C65.8991 50.8603 65.3691 50.2229 65.3691 49.3015H65.3704ZM67.5802 49.0677C67.5802 48.4984 67.2164 48.0679 66.6928 48.0679C66.1691 48.0679 65.7799 48.5202 65.7508 49.0677H67.5802Z" fill="white"/>
<path d="M68.5388 46.9833C68.5388 46.8381 68.6656 46.7147 68.8139 46.7147C68.9623 46.7147 69.0903 46.8381 69.0903 46.9833C69.0903 47.1285 68.9635 47.2454 68.8139 47.2454C68.6643 47.2454 68.5388 47.1285 68.5388 46.9833ZM68.6212 47.7659H68.9965V50.7985H68.6212V47.7659Z" fill="white"/>
<path d="M69.7494 51.179H70.1462C70.2185 51.5028 70.5329 51.6647 70.9614 51.6647C71.5079 51.6647 71.8375 51.4077 71.8375 50.8551V50.1844H71.8045C71.6879 50.4465 71.4356 50.7652 70.8892 50.7652C70.1728 50.7652 69.6543 50.1895 69.6543 49.2566C69.6543 48.3236 70.1564 47.7209 70.8942 47.7209C71.4508 47.7209 71.6879 48.073 71.8096 48.3301H71.8426V47.7659H72.2128V50.877C72.2128 51.648 71.6841 52.0001 70.9614 52.0001C70.2996 52.0001 69.8204 51.7148 69.7494 51.179ZM71.8438 49.2681C71.8438 48.5704 71.5193 48.0666 70.9399 48.0666C70.3605 48.0666 70.0359 48.5973 70.0359 49.2681C70.0359 49.9389 70.3567 50.4247 70.9399 50.4247C71.5231 50.4247 71.8438 49.989 71.8438 49.2681Z" fill="white"/>
<path d="M73.4033 50.7985H73.0229V46.7545H73.4033V48.2464H73.4312C73.5745 47.9278 73.861 47.7273 74.3187 47.7273C74.9247 47.7273 75.338 48.1128 75.338 48.8388V50.7998H74.9627V48.8671C74.9627 48.3698 74.6762 48.0742 74.2185 48.0742C73.7608 48.0742 73.4033 48.3929 73.4033 48.9172V50.7998V50.7985Z" fill="white"/>
<path d="M77.3488 48.0897H76.7199V49.9889C76.7199 50.3744 76.9291 50.4811 77.1548 50.4811C77.2321 50.4811 77.3424 50.4695 77.4033 50.4695V50.8268C77.3424 50.8319 77.2486 50.8435 77.1231 50.8435C76.7313 50.8435 76.3396 50.5865 76.3396 50.084V48.0897H75.8933V47.7658H76.3396V47.0398H76.7199V47.7658H77.3488V48.0897Z" fill="white"/>
<path d="M80.5883 48.0897H79.9594V49.9889C79.9594 50.3744 80.1686 50.4811 80.3956 50.4811C80.4716 50.4811 80.5819 50.4695 80.6428 50.4695V50.8268C80.5819 50.8319 80.4881 50.8435 80.3613 50.8435C79.9708 50.8435 79.5791 50.5865 79.5791 50.084V48.0897H79.1328V47.7658H79.5791V47.0398H79.9594V47.7658H80.5883V48.0897Z" fill="white"/>
<path d="M81.0813 49.2964C81.0813 48.3635 81.6265 47.7209 82.41 47.7209C83.1935 47.7209 83.7323 48.3635 83.7323 49.2964C83.7323 50.2293 83.191 50.8603 82.41 50.8603C81.629 50.8603 81.0813 50.2229 81.0813 49.2964ZM83.3583 49.2964C83.3583 48.632 83.0223 48.0679 82.41 48.0679C81.7976 48.0679 81.4566 48.632 81.4566 49.2964C81.4566 49.9608 81.7925 50.5197 82.41 50.5197C83.0274 50.5197 83.3583 49.9608 83.3583 49.2964Z" fill="white"/>
<path d="M85.4338 46.7545H85.8357L86.7232 50.1894H86.7562L87.6487 46.7545H88.095L88.9876 50.1894H89.0218L89.9093 46.7545H90.3112L89.2208 50.7985H88.8025L87.8871 47.4189H87.8605L86.9451 50.7985H86.5267L85.4351 46.7545H85.4338Z" fill="white"/>
<path d="M90.3682 49.2964C90.3682 48.3635 90.9146 47.7209 91.6956 47.7209C92.4766 47.7209 93.0179 48.3635 93.0179 49.2964C93.0179 50.2293 92.4791 50.8603 91.6956 50.8603C90.9121 50.8603 90.3682 50.2229 90.3682 49.2964ZM92.6439 49.2964C92.6439 48.632 92.3079 48.0679 91.6956 48.0679C91.0832 48.0679 90.7422 48.632 90.7422 49.2964C90.7422 49.9608 91.0781 50.5197 91.6956 50.5197C92.313 50.5197 92.6439 49.9608 92.6439 49.2964Z" fill="white"/>
<path d="M93.6746 47.7659H94.0372V48.235H94.0651C94.1868 47.9278 94.5063 47.7209 94.8752 47.7209C94.9361 47.7209 95.0248 47.7209 95.068 47.7261V48.1116C95.035 48.1065 94.9462 48.0898 94.8474 48.0898C94.3897 48.0898 94.0537 48.4084 94.0537 48.8492V50.7986H93.6733V47.7659H93.6746Z" fill="white"/>
<path d="M96.9508 48.0897H96.322V49.9889C96.322 50.3744 96.5312 50.4811 96.7569 50.4811C96.8342 50.4811 96.9445 50.4695 97.0053 50.4695V50.8268C96.9445 50.8319 96.8507 50.8435 96.7252 50.8435C96.3334 50.8435 95.9416 50.5865 95.9416 50.084V48.0897H95.4954V47.7658H95.9416V47.0398H96.322V47.7658H96.9508V48.0897Z" fill="white"/>
<path d="M98.0652 50.7985H97.6848V46.7545H98.0652V48.2464H98.0918C98.2363 47.9278 98.5229 47.7273 98.9793 47.7273C99.5853 47.7273 99.9986 48.1128 99.9986 48.8388V50.7998H99.6233V48.8671C99.6233 48.3698 99.3368 48.0742 98.8791 48.0742C98.4214 48.0742 98.0639 48.3929 98.0639 48.9172V50.7998L98.0652 50.7985Z" fill="white"/>
<path d="M66.8261 7.16018L62.4597 11.6012L61.3275 12.7488C61.0739 12.4776 60.8064 12.2206 60.5377 11.9482L62.8628 9.57604C62.1922 8.94123 61.4619 8.35269 60.672 7.80912L59.7326 9.2445C59.5538 9.12371 59.3751 9.00292 59.1811 8.88212L60.1193 7.47759C59.2698 6.93402 58.376 6.43543 57.467 6.05763L56.8267 7.6138C56.6175 7.52256 56.4096 7.44803 56.2004 7.35679L56.8407 5.80062C55.9012 5.43824 54.9478 5.15168 53.964 4.93965L53.6508 6.6012C53.4277 6.5408 53.2033 6.49582 52.9801 6.46498L53.3085 4.83428C52.4147 4.66851 51.4904 4.56185 50.5662 4.54643V7.8541C50.3722 7.83868 50.1934 7.83868 49.9995 7.83868C49.8207 7.83868 49.6267 7.83868 49.448 7.8541V4.54643C48.5085 4.56185 47.5995 4.66723 46.6765 4.83428L47.0048 6.46498C46.7957 6.49582 46.5725 6.5408 46.3646 6.58578L46.0362 4.93965C45.0524 5.15168 44.099 5.43824 43.1595 5.80062L43.7998 7.35679C43.5906 7.43261 43.3827 7.52256 43.1735 7.6138L42.5332 6.05763C41.609 6.43543 40.7304 6.93402 39.8809 7.47759L40.8204 8.88212C40.6264 9.00292 40.4324 9.12371 40.2537 9.2445L39.3142 7.80912C38.5548 8.35269 37.8093 8.94252 37.1234 9.57604L38.3456 10.7994L39.4638 11.9469C39.195 12.2181 38.9275 12.4751 38.6739 12.7475L37.5418 11.6L36.3196 10.3458L33.1602 7.1589C37.453 2.73454 43.4296 0 50.0007 0C56.5719 0 62.5484 2.73454 66.8261 7.16018Z" fill="white"/>
<path d="M53.2056 40.9141C53.2056 42.7247 51.7704 44.1793 50.0018 44.1793C48.2332 44.1793 46.7803 42.7247 46.7803 40.9141L46.8475 40.2536V40.2202L50.0018 11.1926L53.1397 40.2381C53.1904 40.4579 53.2069 40.6776 53.2069 40.9141H53.2056Z" fill="white"/>
</g>
<defs>
<clipPath id="clip0_2_326">
<rect width="100" height="52" fill="white"/>
</clipPath>
</defs>
</svg>
