<svg width="67" height="34" viewBox="0 0 67 34" fill="none" xmlns="http://www.w3.org/2000/svg">
<g clip-path="url(#clip0_1_1967)">
<path d="M24.8182 14.2678C23.4897 13.3343 21.8698 12.7806 20.1166 12.7806C18.1594 12.7806 16.3484 13.4662 14.9392 14.6274C14.7939 14.7383 14.6597 14.8593 14.5255 14.9929C14.3803 15.1256 14.246 15.2584 14.1339 15.4021C12.7918 16.8397 11.9755 18.7427 11.9755 20.8323C11.9755 21.4407 11.8302 22.0044 11.5839 22.5027C11.4607 22.7346 11.3265 22.9556 11.1592 23.1547C10.466 24.0504 9.37023 24.6259 8.14023 24.6259C6.02681 24.6259 4.30499 22.9228 4.30499 20.8323C4.30499 18.7419 6.02681 17.0388 8.14023 17.0388C9.37023 17.0388 10.466 17.6143 11.1592 18.51C11.5508 17.0388 12.3 15.7113 13.3286 14.6274V5.38086H9.02366V12.8319C8.73315 12.8008 8.43924 12.7798 8.14023 12.7798C3.65686 12.7806 0 16.3868 0 20.8323C0 25.2779 3.65686 28.8849 8.14023 28.8849C9.89604 28.8849 11.5057 28.3321 12.8368 27.3919C13.0042 27.281 13.1613 27.16 13.3176 27.0382C13.4518 26.9272 13.586 26.8063 13.7202 26.6727C13.8655 26.5508 13.9997 26.4072 14.1339 26.2635C14.4695 25.9097 14.771 25.5224 15.0284 25.1132C15.8226 23.8739 16.2805 22.4145 16.2805 20.8323C16.2805 20.235 16.4257 19.6712 16.6721 19.1729C16.7952 18.9301 16.9294 18.7083 17.0968 18.51C17.7899 17.6143 18.8857 17.0388 20.1157 17.0388C22.2291 17.0388 23.951 18.7419 23.951 20.8323C23.951 22.9228 22.2291 24.6259 20.1157 24.6259C18.8857 24.6259 17.7899 24.0504 17.0968 23.1547C16.9176 23.8403 16.6491 24.5041 16.3144 25.1124C15.9458 25.8089 15.476 26.4508 14.9392 27.0255C15.5992 27.5675 16.3365 28.0103 17.1418 28.3086C18.0584 28.6841 19.065 28.8841 20.1166 28.8841C21.8698 28.8841 23.4897 28.3287 24.8182 27.3944V28.4018H29.1232V13.2679H24.8182V14.2669V14.2678Z" fill="#15502A"/>
<path d="M14.0557 26.9937L14.1449 27.0819L14.1338 27.06C14.1007 27.0382 14.0777 27.0155 14.0557 26.9937Z" fill="#1A6133"/>
<path d="M62.6957 13.2688V14.2678C61.3672 13.3343 59.7473 12.7806 57.994 12.7806C56.0369 12.7806 54.2259 13.4662 52.8166 14.6274C52.6714 14.7383 52.5372 14.8593 52.403 14.9929C52.2577 15.1256 52.1235 15.2584 52.0114 15.4021C50.6692 16.8397 49.8529 18.7427 49.8529 20.8323C49.8529 21.4407 49.7077 22.0044 49.4613 22.5027C49.3382 22.7346 49.2039 22.9556 49.0366 23.1547C48.3435 24.0504 47.2477 24.6259 46.0177 24.6259C43.9043 24.6259 42.1824 22.9228 42.1824 20.8323C42.1824 18.7419 43.9043 17.0388 46.0177 17.0388C47.2477 17.0388 48.3435 17.6143 49.0366 18.51C49.4282 17.0388 50.1774 15.7113 51.2061 14.6274V5.38086H46.9011V12.8319C46.6106 12.8008 46.3167 12.7798 46.0177 12.7798C41.5335 12.7798 37.8774 16.3851 37.8774 20.8315C37.8774 25.2779 41.5343 28.8841 46.0177 28.8841C47.7735 28.8841 49.3832 28.3312 50.7143 27.391C50.8816 27.2801 51.0387 27.1591 51.195 27.0373C51.3293 26.9264 51.4635 26.8054 51.5977 26.6718C51.7429 26.55 51.8771 26.4063 52.0114 26.2626C52.3469 25.9089 52.6484 25.5216 52.9058 25.1124C53.7001 23.8731 54.1579 22.4136 54.1579 20.8315C54.1579 20.2341 54.3032 19.6703 54.5495 19.1721C54.6727 18.9293 54.8069 18.7075 54.9742 18.5092C55.6674 17.6135 56.7632 17.038 57.9932 17.038C60.1066 17.038 61.8284 18.7411 61.8284 20.8315C61.8284 22.922 60.1066 24.6251 57.9932 24.6251C56.7632 24.6251 55.6674 24.0495 54.9742 23.1539C54.795 23.8395 54.5266 24.5032 54.1919 25.1115C53.8232 25.8081 53.3535 26.45 52.8166 27.0247C53.4767 27.5666 54.214 28.0094 55.0192 28.3077C55.9358 28.6833 56.9424 28.8833 57.994 28.8833C59.7473 28.8833 61.3672 28.3279 62.6957 27.3936V28.401H67.0007V13.2671H62.6957V13.2688Z" fill="#15502A"/>
<path d="M51.9336 26.9937L52.0228 27.0819L52.0117 27.06C51.9786 27.0382 51.9557 27.0155 51.9336 26.9937Z" fill="#1A6133"/>
<path d="M31.3481 30.5703H32.9094V30.8039H31.6098V31.7752H32.788V32.0054H31.6098V33.2145H31.3481V30.5703Z" fill="#898989"/>
<path d="M33.3734 31.2316H33.6172V31.5382H33.635C33.7166 31.3374 33.9306 31.2021 34.1778 31.2021C34.2186 31.2021 34.2772 31.2021 34.3069 31.2055V31.4576C34.2849 31.4542 34.2254 31.4433 34.1591 31.4433C33.8525 31.4433 33.6274 31.6517 33.6274 31.9399V33.2145H33.3726V31.2316H33.3734Z" fill="#898989"/>
<path d="M34.4707 32.2322C34.4707 31.6223 34.8368 31.2021 35.3601 31.2021C35.8833 31.2021 36.246 31.6223 36.246 32.2322C36.246 32.8422 35.885 33.2548 35.3601 33.2548C34.8351 33.2548 34.4707 32.838 34.4707 32.2322ZM35.9955 32.2322C35.9955 31.7979 35.7704 31.429 35.3601 31.429C34.9498 31.429 34.7213 31.7979 34.7213 32.2322C34.7213 32.6666 34.9464 33.0321 35.3601 33.0321C35.7738 33.0321 35.9955 32.6666 35.9955 32.2322Z" fill="#898989"/>
<path d="M36.687 31.2316H36.93V31.5383H36.9529C37.0336 31.3299 37.2298 31.2056 37.4914 31.2056C37.7531 31.2056 37.9459 31.3408 38.0342 31.5635H38.0487C38.1404 31.3442 38.3511 31.2056 38.6433 31.2056C39.0162 31.2056 39.2532 31.4391 39.2532 31.8853V33.2145H38.9984V31.8887C38.9984 31.582 38.8251 31.4324 38.5668 31.4324C38.2678 31.4324 38.0979 31.6332 38.0979 31.9147V33.2154H37.8431V31.8677C37.8431 31.608 37.6843 31.4333 37.4184 31.4333C37.1525 31.4333 36.9427 31.645 36.9427 31.9517V33.2154H36.6879V31.2325L36.687 31.2316Z" fill="#898989"/>
<path d="M40.4922 30.5703H40.7623L41.3569 32.8162H41.379L41.977 30.5703H42.276L42.8749 32.8162H42.897L43.4916 30.5703H43.7617L43.0303 33.2145H42.75L42.1376 31.0047H42.1189L41.5056 33.2145H41.2253L40.4939 30.5703H40.4922Z" fill="#898989"/>
<path d="M43.7987 32.2356C43.7987 31.6332 44.1606 31.2021 44.6813 31.2021C45.117 31.2021 45.5375 31.5088 45.5375 32.181V32.2978H44.0493C44.0603 32.7456 44.3169 33.0321 44.7178 33.0321C44.9947 33.0321 45.157 32.8893 45.2266 32.7658H45.4967C45.4084 33.0397 45.1238 33.2548 44.7178 33.2548C44.1529 33.2548 43.7979 32.838 43.7979 32.2356H43.7987ZM45.2793 32.0827C45.2793 31.7105 45.0355 31.429 44.6847 31.429C44.3339 31.429 44.0731 31.7248 44.0535 32.0827H45.2793Z" fill="#898989"/>
<path d="M45.9214 30.72C45.9214 30.6251 46.0063 30.5444 46.1057 30.5444C46.2051 30.5444 46.2909 30.6251 46.2909 30.72C46.2909 30.815 46.206 30.8914 46.1057 30.8914C46.0055 30.8914 45.9214 30.815 45.9214 30.72ZM45.9766 31.2317H46.228V33.2146H45.9766V31.2317Z" fill="#898989"/>
<path d="M46.7327 33.4632H46.9985C47.0469 33.6749 47.2576 33.7808 47.5447 33.7808C47.9108 33.7808 48.1317 33.6127 48.1317 33.2514V32.8128H48.1096C48.0315 32.9842 47.8624 33.1926 47.4963 33.1926C47.0164 33.1926 46.6689 32.8162 46.6689 32.2062C46.6689 31.5962 47.0053 31.2021 47.4997 31.2021C47.8726 31.2021 48.0315 31.4324 48.113 31.6004H48.1351V31.2316H48.3831V33.2657C48.3831 33.7698 48.0289 34.0001 47.5447 34.0001C47.1013 34.0001 46.7802 33.8135 46.7327 33.4632ZM48.1359 32.2138C48.1359 31.7575 47.9185 31.4282 47.5303 31.4282C47.1421 31.4282 46.9246 31.7752 46.9246 32.2138C46.9246 32.6524 47.1395 32.97 47.5303 32.97C47.921 32.97 48.1359 32.6851 48.1359 32.2138Z" fill="#898989"/>
<path d="M49.1806 33.2145H48.9258V30.5703H49.1806V31.5458H49.1993C49.2953 31.3374 49.4873 31.2064 49.7939 31.2064C50.2 31.2064 50.4769 31.4584 50.4769 31.9331V33.2153H50.2254V31.9516C50.2254 31.6265 50.0335 31.4332 49.7268 31.4332C49.4202 31.4332 49.1806 31.6416 49.1806 31.9844V33.2153V33.2145Z" fill="#898989"/>
<path d="M51.8238 31.4433H51.4025V32.6851C51.4025 32.9372 51.5426 33.0069 51.6938 33.0069C51.7456 33.0069 51.8196 32.9994 51.8603 32.9994V33.2329C51.8196 33.2363 51.7567 33.2439 51.6726 33.2439C51.4101 33.2439 51.1476 33.0758 51.1476 32.7473V31.4433H50.8486V31.2316H51.1476V30.7568H51.4025V31.2316H51.8238V31.4433Z" fill="#898989"/>
<path d="M53.9942 31.4433H53.5729V32.6851C53.5729 32.9372 53.713 33.0069 53.8651 33.0069C53.9161 33.0069 53.99 32.9994 54.0307 32.9994V33.2329C53.99 33.2363 53.9271 33.2439 53.8422 33.2439C53.5805 33.2439 53.318 33.0758 53.318 32.7473V31.4433H53.019V31.2316H53.318V30.7568H53.5729V31.2316H53.9942V31.4433Z" fill="#898989"/>
<path d="M54.3247 32.2322C54.3247 31.6223 54.69 31.2021 55.2149 31.2021C55.7399 31.2021 56.1009 31.6223 56.1009 32.2322C56.1009 32.8422 55.7382 33.2548 55.2149 33.2548C54.6917 33.2548 54.3247 32.838 54.3247 32.2322ZM55.8503 32.2322C55.8503 31.7979 55.6252 31.429 55.2149 31.429C54.8046 31.429 54.5761 31.7979 54.5761 32.2322C54.5761 32.6666 54.8012 33.0321 55.2149 33.0321C55.6286 33.0321 55.8503 32.6666 55.8503 32.2322Z" fill="#898989"/>
<path d="M57.2407 30.5703H57.51L58.1046 32.8162H58.1267L58.7247 30.5703H59.0237L59.6217 32.8162H59.6447L60.2393 30.5703H60.5085L59.778 33.2145H59.4977L58.8844 31.0047H58.8666L58.2533 33.2145H57.9729L57.2416 30.5703H57.2407Z" fill="#898989"/>
<path d="M60.5469 32.2322C60.5469 31.6223 60.913 31.2021 61.4362 31.2021C61.9595 31.2021 62.3222 31.6223 62.3222 32.2322C62.3222 32.8422 61.9612 33.2548 61.4362 33.2548C60.9113 33.2548 60.5469 32.838 60.5469 32.2322ZM62.0716 32.2322C62.0716 31.7979 61.8465 31.429 61.4362 31.429C61.026 31.429 60.7975 31.7979 60.7975 32.2322C60.7975 32.6666 61.0226 33.0321 61.4362 33.0321C61.8499 33.0321 62.0716 32.6666 62.0716 32.2322Z" fill="#898989"/>
<path d="M62.7626 31.2316H63.0055V31.5382H63.0242C63.1057 31.3374 63.3198 31.2021 63.567 31.2021C63.6078 31.2021 63.6672 31.2021 63.6961 31.2055V31.4576C63.674 31.4542 63.6146 31.4433 63.5483 31.4433C63.2417 31.4433 63.0166 31.6517 63.0166 31.9399V33.2145H62.7617V31.2316H62.7626Z" fill="#898989"/>
<path d="M64.9571 31.4433H64.5358V32.6851C64.5358 32.9372 64.6759 33.0069 64.8271 33.0069C64.8789 33.0069 64.9529 32.9994 64.9936 32.9994V33.2329C64.9529 33.2363 64.89 33.2439 64.8059 33.2439C64.5434 33.2439 64.2809 33.0758 64.2809 32.7473V31.4433H63.9819V31.2316H64.2809V30.7568H64.5358V31.2316H64.9571V31.4433Z" fill="#898989"/>
<path d="M65.7041 33.2145H65.4492V30.5703H65.7041V31.5458H65.7219C65.8187 31.3374 66.0107 31.2064 66.3165 31.2064C66.7225 31.2064 66.9995 31.4584 66.9995 31.9331V33.2153H66.748V31.9516C66.748 31.6265 66.556 31.4332 66.2494 31.4332C65.9427 31.4332 65.7032 31.6416 65.7032 31.9844V33.2153L65.7041 33.2145Z" fill="#898989"/>
<path d="M44.7735 4.68166L41.848 7.58543L41.0894 8.33574C40.9195 8.15845 40.7403 7.99041 40.5602 7.81229L42.1181 6.26126C41.6687 5.84619 41.1795 5.46137 40.6503 5.10597L40.0208 6.04448C39.901 5.9655 39.7813 5.88652 39.6513 5.80754L40.2799 4.88919C39.7108 4.53378 39.1119 4.20778 38.5029 3.96076L38.0739 4.97825C37.9337 4.9186 37.7944 4.86987 37.6543 4.81021L38.0832 3.79271C37.4538 3.55578 36.815 3.36841 36.1558 3.22977L35.946 4.31617C35.7965 4.27668 35.6462 4.24727 35.4967 4.2271L35.7167 3.16088C35.1178 3.05249 34.4986 2.98275 33.8793 2.97267V5.13537C33.7494 5.12529 33.6296 5.12529 33.4996 5.12529C33.3798 5.12529 33.2499 5.12529 33.1301 5.13537V2.97267C32.5007 2.98275 31.8916 3.05165 31.2732 3.16088L31.4932 4.2271C31.3531 4.24727 31.2036 4.27668 31.0643 4.30608L30.8443 3.22977C30.1851 3.36841 29.5463 3.55578 28.9169 3.79271L29.3458 4.81021C29.2057 4.85978 29.0664 4.9186 28.9262 4.97825L28.4972 3.96076C27.878 4.20778 27.2893 4.53378 26.7202 4.88919L27.3496 5.80754C27.2197 5.88652 27.0897 5.9655 26.9699 6.04448L26.3405 5.10597C25.8317 5.46137 25.3322 5.84703 24.8727 6.26126L25.6915 7.06114L26.4407 7.81145C26.2606 7.98873 26.0814 8.15677 25.9115 8.3349L25.153 7.58459L24.3341 6.76454L22.2173 4.68082C25.0935 1.78797 29.0978 0 33.5005 0C37.9031 0 41.9074 1.78797 44.7735 4.68166Z" fill="#F49E15"/>
<path d="M35.6478 26.7516C35.6478 27.9355 34.6862 28.8866 33.5012 28.8866C32.3162 28.8866 31.3428 27.9355 31.3428 26.7516L31.3878 26.3197V26.2979L33.5012 7.31836L35.6036 26.3097C35.6376 26.4533 35.6486 26.597 35.6486 26.7516H35.6478Z" fill="#15502A"/>
</g>
<defs>
<clipPath id="clip0_1_1967">
<rect width="67" height="34" fill="white"/>
</clipPath>
</defs>
</svg>
