<svg width="28" height="28" viewBox="0 0 28 28" fill="none" xmlns="http://www.w3.org/2000/svg">
<path d="M9.77699 10.3289C10.589 12.0201 11.6959 13.6052 13.0977 15.0071C14.4996 16.4089 16.0847 17.5158 17.7759 18.3278C17.9214 18.3977 17.9941 18.4326 18.0861 18.4594C18.4132 18.5548 18.8149 18.4863 19.0919 18.2879C19.1698 18.2321 19.2365 18.1654 19.3699 18.0321C19.7777 17.6242 19.9817 17.4203 20.1867 17.2869C20.9601 16.7841 21.9571 16.7841 22.7305 17.2869C22.9356 17.4203 23.1395 17.6242 23.5474 18.0321L23.7747 18.2594C24.3947 18.8794 24.7047 19.1894 24.8731 19.5224C25.2081 20.1845 25.2081 20.9665 24.8731 21.6287C24.7047 21.9616 24.3947 22.2716 23.7747 22.8916L23.5908 23.0755C22.9729 23.6934 22.664 24.0024 22.2439 24.2383C21.7778 24.5002 21.0539 24.6884 20.5194 24.6868C20.0376 24.6854 19.7083 24.5919 19.0498 24.405C15.5108 23.4006 12.1714 21.5053 9.38544 18.7194C6.59946 15.9334 4.70424 12.594 3.69977 9.05501C3.51287 8.39649 3.41941 8.06723 3.41798 7.58546C3.41639 7.05086 3.60464 6.32696 3.86647 5.86087C4.10242 5.44083 4.41137 5.13188 5.02926 4.51399L5.21317 4.33008C5.83319 3.71007 6.14319 3.40006 6.47614 3.23166C7.13829 2.89674 7.92027 2.89674 8.58242 3.23165C8.91537 3.40006 9.22538 3.71006 9.84539 4.33008L10.0727 4.55743C10.4806 4.9653 10.6846 5.16924 10.8179 5.37431C11.3207 6.14769 11.3207 7.1447 10.8179 7.91807C10.6846 8.12314 10.4806 8.32708 10.0727 8.73495C9.93938 8.86832 9.8727 8.935 9.81688 9.01295C9.61853 9.28995 9.55005 9.69159 9.64539 10.0187C9.67222 10.1107 9.70715 10.1834 9.77699 10.3289Z" fill="white" stroke="white" stroke-width="1.5" stroke-linecap="round" stroke-linejoin="round"/>
</svg>
