<svg width="32" height="32" viewBox="0 0 32 32" fill="none" xmlns="http://www.w3.org/2000/svg">
<path d="M3.2666 15.2257C3.2666 11.203 3.6666 9.19105 4.91593 7.94172C6.16527 6.69238 8.17727 6.69238 12.1999 6.69238H19.7999C23.8226 6.69238 25.8333 6.69238 27.0839 7.94172C28.3346 9.19105 28.7333 11.203 28.7333 15.2257V16.7751C28.7333 20.7977 28.3333 22.8097 27.0839 24.0591C25.8346 25.3084 23.8226 25.3084 19.7999 25.3084H12.1999C8.17727 25.3084 6.16527 25.3084 4.91593 24.0591C3.6666 22.8097 3.2666 20.7977 3.2666 16.7751V15.2257Z" stroke="#999999" stroke-width="1.5" stroke-linecap="round" stroke-linejoin="round"/>
<path d="M19.5812 15.3221L13.8905 11.7661C13.7694 11.6904 13.6302 11.6485 13.4874 11.6448C13.3447 11.6411 13.2035 11.6756 13.0786 11.7449C12.9537 11.8141 12.8496 11.9156 12.7771 12.0387C12.7046 12.1617 12.6665 12.302 12.6665 12.4448V19.5581C12.6667 19.7008 12.7051 19.8409 12.7776 19.9638C12.8502 20.0867 12.9543 20.1879 13.0792 20.257C13.204 20.3261 13.3451 20.3606 13.4878 20.3568C13.6304 20.353 13.7695 20.3111 13.8905 20.2355L19.5812 16.6795C19.6963 16.6076 19.7913 16.5076 19.8572 16.3888C19.923 16.2701 19.9576 16.1366 19.9576 16.0008C19.9576 15.865 19.923 15.7315 19.8572 15.6128C19.7913 15.494 19.6963 15.394 19.5812 15.3221Z" stroke="#999999" stroke-width="1.5" stroke-linejoin="round"/>
</svg>
