<svg width="15" height="15" viewBox="0 0 15 15" fill="none" xmlns="http://www.w3.org/2000/svg">
<path d="M6.44978 0.569101C6.81201 -0.190021 7.89258 -0.190021 8.25481 0.569101L9.71069 3.62013C9.85647 3.92564 10.1469 4.13666 10.4825 4.1809L13.8341 4.6227C14.668 4.73263 15.0019 5.7603 14.3919 6.33939L11.9401 8.66683C11.6946 8.89989 11.5836 9.24132 11.6453 9.57417L12.2608 12.8983C12.4139 13.7253 11.5398 14.3605 10.8005 13.9592L7.82931 12.3466C7.5318 12.1852 7.17279 12.1852 6.87528 12.3466L3.90409 13.9592C3.16484 14.3605 2.29065 13.7253 2.4438 12.8983L3.05932 9.57417C3.12095 9.24132 3.01001 8.89989 2.7645 8.66683L0.31269 6.33939C-0.297341 5.7603 0.0365703 4.73263 0.870475 4.6227L4.22207 4.1809C4.55768 4.13666 4.84812 3.92564 4.9939 3.62013L6.44978 0.569101Z" fill="#FFB600"/>
</svg>
