<svg width="20" height="20" viewBox="0 0 20 20" fill="none" xmlns="http://www.w3.org/2000/svg">
<path d="M16.6668 6.66675V6.50008C16.6668 5.09995 16.6668 3.56655 16.3943 3.03177C16.1547 2.56137 15.7722 2.17892 15.3018 1.93923C14.767 1.66675 14.067 1.66675 12.6668 1.66675H7.3335C5.93336 1.66675 5.2333 1.66675 4.69852 1.93923C4.22811 2.17892 3.84566 2.56137 3.60598 3.03177C3.3335 3.56655 3.3335 4.26662 3.3335 5.66675V14.3334C3.3335 15.7335 3.3335 16.4336 3.60598 16.9684C3.84566 17.4388 4.22811 17.8212 4.69852 18.0609C5.2333 18.3334 5.93336 18.3334 7.3335 18.3334" stroke="#165B4E" stroke-width="1.5" stroke-linecap="round" stroke-linejoin="round"/>
<path d="M10.7384 15.5554C10.7738 15.4317 10.7915 15.3698 10.818 15.3121C10.8415 15.2608 10.8702 15.2121 10.9035 15.1666C10.9411 15.1154 10.9866 15.0699 11.0776 14.9789L16.4583 9.59823C17.0336 9.02293 17.9664 9.02292 18.5417 9.59821C19.117 10.1735 19.117 11.1063 18.5417 11.6816L13.161 17.0623C13.07 17.1533 13.0244 17.1988 12.9733 17.2364C12.9278 17.2697 12.8791 17.2984 12.8278 17.3219C12.7701 17.3484 12.7082 17.3661 12.5845 17.4015L10 18.1399L10.7384 15.5554Z" stroke="#165B4E" stroke-width="1.5" stroke-linecap="round" stroke-linejoin="round"/>
<path d="M9.99984 9.16659H6.6665M11.6665 5.83325H9.99984H6.6665" stroke="#165B4E" stroke-width="1.5" stroke-linecap="round" stroke-linejoin="round"/>
</svg>
