<svg width="20" height="20" viewBox="0 0 20 20" fill="none" xmlns="http://www.w3.org/2000/svg">
<path d="M7.79496 17.5001C8.38257 18.0187 9.15444 18.3334 9.99981 18.3334C10.8452 18.3334 11.6171 18.0187 12.2047 17.5001M14.9998 6.66675C14.9998 5.34067 14.473 4.0689 13.5353 3.13121C12.5977 2.19353 11.3259 1.66675 9.99981 1.66675C8.67373 1.66675 7.40196 2.19353 6.46428 3.13121C5.5266 4.0689 4.99981 5.34067 4.99981 6.66675C4.99981 9.2419 4.3502 11.005 3.62453 12.1713C3.01242 13.155 2.70636 13.6468 2.71758 13.784C2.73001 13.936 2.7622 13.9939 2.88463 14.0847C2.99519 14.1667 3.49364 14.1667 4.49052 14.1667H15.5091C16.506 14.1667 17.0044 14.1667 17.115 14.0847C17.2374 13.9939 17.2696 13.936 17.282 13.784C17.2933 13.6468 16.9872 13.155 16.3751 12.1713C15.6494 11.005 14.9998 9.2419 14.9998 6.66675Z" stroke="#165B4E" stroke-width="1.5" stroke-linecap="round" stroke-linejoin="round"/>
</svg>
